<svg xmlns="http://www.w3.org/2000/svg" width="80" height="93" viewBox="0 0 80 93">
  <g id="Group_21385" data-name="Group 21385" transform="translate(-6056 15110)">
    <path id="Union_21" data-name="Union 21" d="M-339,303h-21a10,10,0,0,1-10-10V233a10,10,0,0,1,10-10h60a10,10,0,0,1,10,10v60a10,10,0,0,1-10,10h-21l-9,13Z" transform="translate(6426 -15333)" fill="#1d4370"/>
    <rect id="Rectangle_4194" data-name="Rectangle 4194" width="72" height="72" rx="8" transform="translate(6060 -15106)" fill="#fff"/>
    <path id="a7e270225620666a644c9ae7b1dac962" d="M49.633,18.439a1.572,1.572,0,0,0-1.416-.216L44,19.629V5.571A1.572,1.572,0,0,0,42.429,4H33a1.572,1.572,0,0,0-1.571,1.571V23.82l-4.714,1.571V19.714a1.572,1.572,0,0,0-2.155-1.459l-7.273,2.91V5.571A1.572,1.572,0,0,0,15.714,4H6.286A1.572,1.572,0,0,0,4.714,5.571V26a1.593,1.593,0,0,0,.019.185l-3.746,1.5A1.572,1.572,0,0,0,0,29.143V46.429A1.572,1.572,0,0,0,1.571,48H48.714a1.572,1.572,0,0,0,1.571-1.571V19.714A1.571,1.571,0,0,0,49.633,18.439Zm-8.776-11.3V8.714H34.571V7.143Zm-6.286,4.714h6.286v8.82l-6.286,2.1ZM14.143,7.143V8.714H7.857V7.143ZM7.857,11.857h6.286V22.422L7.857,24.936Zm1.571,33V41.714h6.286v3.143Zm15.714,0V41.714H40.857v3.143Zm22,0H44V40.143a1.572,1.572,0,0,0-1.571-1.571H23.571A1.572,1.572,0,0,0,22,40.143v4.714H18.857V40.143a1.572,1.572,0,0,0-1.571-1.571H7.857a1.572,1.572,0,0,0-1.571,1.571v4.714H3.143V30.207l20.429-8.171v5.536a1.572,1.572,0,0,0,2.069,1.491l21.5-7.168Z" transform="translate(6071 -15096)" fill="#1d4370"/>
  </g>
</svg>
